<?xml version="1.0" standalone="no"?>
<!DOCTYPE svg PUBLIC "-//W3C//DTD SVG 20010904//EN"
 "http://www.w3.org/TR/2001/REC-SVG-20010904/DTD/svg10.dtd">
<svg version="1.0" xmlns="http://www.w3.org/2000/svg"
 width="1080.000000pt" height="1080.000000pt" viewBox="0 0 1080.000000 1080.000000"
 preserveAspectRatio="xMidYMid meet">
<metadata>
Created by potrace 1.14, written by Peter Selinger 2001-2017
</metadata>
<g transform="translate(0.000000,1080.000000) scale(0.100000,-0.100000)"
fill="#000000" stroke="none">
<path d="M1990 5400 l0 -4990 655 0 655 0 0 2040 0 2040 783 0 782 -1 1175
-2021 c646 -1111 1182 -2029 1190 -2040 15 -18 41 -18 797 -16 l782 3 -1240
2070 c-683 1139 -1245 2077 -1250 2086 -7 14 7 20 99 43 246 62 510 159 722
265 551 276 962 679 1230 1206 141 276 236 596 287 955 21 157 24 600 4 765
-73 611 -273 1095 -622 1507 -444 523 -1094 862 -1927 1004 -416 70 -312 67
-2314 71 l-1808 4 0 -4991z m3647 3887 c626 -79 1043 -282 1336 -650 135 -169
241 -404 298 -659 48 -216 66 -589 39 -813 -104 -878 -639 -1427 -1541 -1579
-243 -42 -377 -46 -1451 -46 l-1018 0 0 1886 0 1885 1103 -4 c953 -3 1120 -6
1234 -20z"/>
</g>
</svg>
